<?xml version="1.0" standalone="no"?><!DOCTYPE svg PUBLIC "-//W3C//DTD SVG 1.1//EN" "http://www.w3.org/Graphics/SVG/1.1/DTD/svg11.dtd"><svg t="1762758311877" class="icon" viewBox="0 0 1024 1024" version="1.1" xmlns="http://www.w3.org/2000/svg" p-id="1701" id="mx_n_1762758311878" xmlns:xlink="http://www.w3.org/1999/xlink" width="200" height="200"><path d="M680.082286 377.344a36.571429 36.571429 0 0 1 0 51.712l-362.057143 362.057143a36.571429 36.571429 0 0 1-51.712 0l-51.712-51.712a36.571429 36.571429 0 0 1 0-51.748572l362.057143-362.057142a36.571429 36.571429 0 0 1 51.712 0l51.712 51.748571z m-213.869715-162.121143l-35.254857 45.860572 33.536 47.396571-10.496 10.496-45.348571-34.925714-45.860572 34.596571-12.361142-12.361143 35.108571-45.568-34.962286-45.165714 10.496-10.496 46.957715 33.572571 45.860571-35.766857 12.324571 12.361143z m336.201143 336.164572l-35.291428 45.860571 33.536 47.396571-10.496 10.496-45.348572-34.889142-45.860571 34.56-12.324572-12.324572 35.108572-45.604571-34.998857-45.165715 10.496-10.496 46.994285 33.572572 45.824-35.766857 12.361143 12.361143z m-148.187428-148.187429l-51.712-51.712-77.568 77.568 51.712 51.712 77.568-77.531429z m122.331428-187.977143l-35.291428 45.860572 33.536 47.396571-10.496 10.496-45.348572-34.925714-45.860571 34.596571-12.324572-12.361143 35.108572-45.568-34.998857-45.165714 10.496-10.496 46.994285 33.572571 45.824-35.766857 12.361143 12.361143z" fill="#967eeb" p-id="1702"></path></svg>